<?xml version="1.0" encoding="utf-8"?>
<!-- Generator: Adobe Illustrator 28.3.0, SVG Export Plug-In . SVG Version: 6.00 Build 0)  -->
<svg version="1.1" id="Layer_1" xmlns="http://www.w3.org/2000/svg" xmlns:xlink="http://www.w3.org/1999/xlink" x="0px" y="0px"
	 viewBox="0 0 1020 194" style="enable-background:new 0 0 1020 194;" xml:space="preserve">
<style type="text/css">
	.st0{display:none;fill:#191B34;}
	.st1{fill:#FFFFFF;}
</style>
<rect x="-173" y="-145" class="st0" width="1366" height="484"/>
<g>
	<g>
		<path class="st1" d="M189.89,9.81h46.14l48.73,118.89h2.07L335.56,9.81h46.14v176.96h-36.29V71.59h-1.47L298.15,185.9h-24.71
			L227.65,71.16h-1.47v115.61h-36.29V9.81z"/>
		<path class="st1" d="M496.88,130.26V54.05h36.81v132.72h-35.34v-24.11h-1.38c-3,7.78-7.96,14.03-14.91,18.75
			c-6.94,4.72-15.39,7.09-25.36,7.09c-8.87,0-16.68-2.02-23.42-6.05c-6.74-4.03-12-9.76-15.77-17.19
			c-3.77-7.43-5.69-16.33-5.75-26.7v-84.5h36.81v77.94c0.06,7.83,2.16,14.03,6.31,18.58c4.15,4.55,9.71,6.83,16.68,6.83
			c4.43,0,8.58-1.02,12.44-3.07c3.86-2.04,6.98-5.08,9.37-9.12C495.77,141.18,496.93,136.19,496.88,130.26z"/>
		<path class="st1" d="M673.49,91.9l-33.7,2.07c-0.58-2.88-1.81-5.49-3.72-7.82c-1.9-2.33-4.39-4.2-7.47-5.62
			c-3.08-1.41-6.75-2.12-11.02-2.12c-5.7,0-10.51,1.2-14.43,3.59c-3.92,2.39-5.87,5.57-5.87,9.55c0,3.17,1.27,5.85,3.8,8.03
			c2.53,2.19,6.88,3.95,13.05,5.27l24.02,4.84c12.9,2.65,22.52,6.91,28.86,12.79c6.34,5.87,9.5,13.59,9.5,23.16
			c0,8.7-2.55,16.33-7.65,22.9c-5.1,6.57-12.07,11.68-20.91,15.34c-8.84,3.66-19.02,5.49-30.54,5.49
			c-17.57,0-31.55-3.67-41.95-11.02c-10.4-7.34-16.49-17.35-18.27-30.03l36.2-1.9c1.09,5.36,3.74,9.43,7.95,12.23
			c4.2,2.8,9.59,4.19,16.16,4.19c6.45,0,11.65-1.25,15.6-3.76c3.95-2.51,5.95-5.75,6.01-9.72c-0.06-3.34-1.47-6.09-4.23-8.25
			c-2.76-2.16-7.03-3.82-12.79-4.97l-22.98-4.58c-12.96-2.59-22.59-7.08-28.9-13.48s-9.46-14.54-9.46-24.45
			c0-8.52,2.32-15.87,6.96-22.03c4.64-6.16,11.17-10.92,19.61-14.26c8.44-3.34,18.33-5.01,29.68-5.01
			c16.76,0,29.97,3.54,39.62,10.63C666.24,70.04,671.87,79.68,673.49,91.9z"/>
		<path class="st1" d="M718.24,36.94c-5.47,0-10.15-1.83-14.04-5.49c-3.89-3.66-5.83-8.05-5.83-13.18c0-5.07,1.94-9.43,5.83-13.09
			c3.89-3.66,8.57-5.49,14.04-5.49c5.47,0,10.15,1.83,14.04,5.49c3.89,3.66,5.83,8.02,5.83,13.09c0,5.13-1.94,9.52-5.83,13.18
			C728.39,35.12,723.71,36.94,718.24,36.94z M699.75,186.77V54.05h36.81v132.72H699.75z"/>
		<path class="st1" d="M765.93,186.77V9.81h36.81v176.96H765.93z M799.28,148.58l0.09-44.15h5.36l42.51-50.37h42.25l-57.11,66.7
			h-8.73L799.28,148.58z M848.88,186.77l-39.05-57.8l24.54-26.01L892,186.77H848.88z"/>
		<path class="st1" d="M945.3,189.27c-8.47,0-16.01-1.48-22.64-4.45c-6.62-2.97-11.85-7.37-15.68-13.22
			c-3.83-5.85-5.75-13.15-5.75-21.9c0-7.37,1.35-13.57,4.06-18.58c2.71-5.01,6.39-9.04,11.06-12.1c4.67-3.05,9.98-5.36,15.94-6.91
			c5.96-1.56,12.23-2.65,18.79-3.28c7.72-0.81,13.94-1.57,18.66-2.29c4.72-0.72,8.15-1.8,10.28-3.24c2.13-1.44,3.2-3.57,3.2-6.39
			v-0.52c0-5.47-1.71-9.71-5.14-12.7c-3.43-2.99-8.28-4.49-14.56-4.49c-6.62,0-11.9,1.46-15.81,4.36
			c-3.92,2.91-6.51,6.55-7.78,10.93l-34.04-2.76c1.73-8.06,5.13-15.05,10.19-20.95c5.07-5.9,11.62-10.45,19.66-13.65
			c8.03-3.2,17.35-4.8,27.95-4.8c7.37,0,14.44,0.86,21.21,2.59c6.77,1.73,12.79,4.41,18.06,8.04c5.27,3.63,9.43,8.28,12.49,13.95
			c3.05,5.67,4.58,12.46,4.58,20.35v89.51h-34.91v-18.4h-1.04c-2.13,4.15-4.98,7.79-8.55,10.93c-3.57,3.14-7.86,5.59-12.87,7.34
			C957.66,188.39,951.87,189.27,945.3,189.27z M955.85,163.87c5.41,0,10.2-1.08,14.34-3.24c4.15-2.16,7.4-5.08,9.76-8.77
			c2.36-3.69,3.54-7.86,3.54-12.53v-14.08c-1.15,0.75-2.72,1.43-4.71,2.03c-1.99,0.6-4.22,1.15-6.7,1.64
			c-2.48,0.49-4.96,0.92-7.43,1.3c-2.48,0.38-4.72,0.71-6.74,0.99c-4.32,0.63-8.09,1.64-11.32,3.02c-3.23,1.38-5.73,3.24-7.52,5.57
			c-1.79,2.33-2.68,5.23-2.68,8.68c0,5.01,1.83,8.83,5.49,11.45C945.55,162.56,950.2,163.87,955.85,163.87z"/>
	</g>
	<g>
		<path class="st1" d="M87.04,35.01v7.13l41.29,16.31l-5.44,13.77L87.04,58.05v40.98c-4.07-7.25-11.81-11.91-20.32-11.91
			c-2.64,0-5.25,0.45-7.76,1.34l-6.92,2.44V8.21h35v6.37l50.29,19.87l-6.99,17.67L87.04,35.01z"/>
		<g>
			<path class="st1" d="M87.55,114.43L4.56,143.7l0.99,2.83l82.99-29.27L87.55,114.43z M90.87,123.86L7.88,153.13l1,2.83
				l82.99-29.27L90.87,123.86z M101.08,152.79l-6.88-19.5l-82.99,29.27l6.88,19.5c2.65,7.53,9.72,12.24,17.27,12.24
				c2.02,0,4.08-0.34,6.1-1.05l48.43-17.09C99.44,172.8,104.44,162.34,101.08,152.79z"/>
			<path class="st1" d="M85.22,107.83L2.23,137.1L1,133.63c-3.36-9.55,1.64-20.01,11.19-23.37L52.04,96.2l8.58-3.03
				c2.02-0.71,4.08-1.05,6.1-1.05c6.8,0,13.21,3.82,16.35,10.09c0.35,0.68,0.66,1.4,0.92,2.15L85.22,107.83z"/>
		</g>
	</g>
</g>
</svg>
