<?xml version="1.0" encoding="utf-8"?>
<!-- Generator: Adobe Illustrator 28.3.0, SVG Export Plug-In . SVG Version: 6.00 Build 0)  -->
<svg version="1.1" id="Layer_1" xmlns="http://www.w3.org/2000/svg" xmlns:xlink="http://www.w3.org/1999/xlink" x="0px" y="0px"
	 viewBox="0 0 356.19 379.32" style="enable-background:new 0 0 356.19 379.32;" xml:space="preserve">
<style type="text/css">
	.st0{fill:#FFFFFF;}
</style>
<g>
	<path class="st0" d="M331.58,65.12H157.99c-13.59,0-24.61-11.02-24.61-24.61l0,0c0-13.59,11.02-24.61,24.61-24.61h173.59
		c13.59,0,24.61,11.02,24.61,24.61l0,0C356.18,54.1,345.17,65.12,331.58,65.12z"/>
	<path class="st0" d="M269.06,159.57H157.99c-13.59,0-24.61-11.02-24.61-24.61l0,0c0-13.59,11.02-24.61,24.61-24.61h111.07
		c13.59,0,24.61,11.02,24.61,24.61l0,0C293.67,148.55,282.65,159.57,269.06,159.57z"/>
	<path class="st0" d="M205.88,254.01h-47.89c-13.59,0-24.61-11.02-24.61-24.61l0,0c0-13.59,11.02-24.61,24.61-24.61h47.89
		c13.59,0,24.61,11.02,24.61,24.61l0,0C230.48,243,219.47,254.01,205.88,254.01z"/>
	<path class="st0" d="M118.12,318.72l-48.19,56.29c-4.93,5.75-13.82,5.75-18.74,0l-48.2-56.29c-6.85-8-1.17-20.36,9.37-20.36h23.92
		V24.28C36.28,10.87,47.15,0,60.56,0c6.7,0,12.77,2.72,17.16,7.11s7.11,10.47,7.11,17.17v274.08h23.92
		C119.29,298.36,124.98,310.72,118.12,318.72z"/>
</g>
</svg>
